<svg width="17" height="30" viewBox="0 0 17 30" fill="none" xmlns="http://www.w3.org/2000/svg">
<path d="M10.8786 0.362727C11.5877 0.347947 12.2935 0.475153 12.9528 0.736791C13.612 0.998429 14.2119 1.3893 14.7179 1.88626C15.2238 2.3832 15.6252 2.97625 15.8985 3.63058C16.1714 4.28382 16.3119 4.9852 16.3103 5.69312L16.3103 22.9845C16.3093 23.8934 16.1216 24.7925 15.7595 25.6262C15.3975 26.4599 14.8683 27.2104 14.2049 27.8316C13.5414 28.4528 12.7577 28.9318 11.902 29.2383C11.0463 29.5447 10.1361 29.6725 9.22905 29.6136C8.32211 29.5548 7.43639 29.311 6.62749 28.8967C5.81867 28.4823 5.10362 27.9059 4.52599 27.2043C3.94829 26.5026 3.52001 25.6893 3.26872 24.8157C3.09698 24.2187 3.01209 23.6017 3.01155 22.9831C2.3783 22.5086 1.8322 21.9242 1.40231 21.2544C0.817134 20.3425 0.463461 19.3013 0.372343 18.2216C0.281287 17.1422 0.456199 16.0572 0.880176 15.0603C1.16841 14.3827 1.56763 13.7612 2.05692 13.2172C1.8384 12.5958 1.71107 11.944 1.68416 11.282C1.64321 10.2739 1.83286 9.26959 2.23745 8.34532C2.64209 7.42104 3.25095 6.60018 4.01944 5.94639C4.53362 5.50898 5.11095 5.15556 5.7287 4.89304C5.78257 4.53361 5.87354 4.1797 6.00016 3.83709C6.24602 3.17191 6.62201 2.56234 7.10676 2.04471C7.59162 1.52702 8.17602 1.1114 8.82381 0.82251C9.47126 0.53386 10.1698 0.377585 10.8786 0.362727ZM10.9344 3.02143C10.5799 3.02885 10.2308 3.10823 9.90703 3.25262C9.58314 3.39706 9.29094 3.60423 9.0485 3.86308C8.80612 4.12188 8.61814 4.42666 8.49521 4.75926C8.37232 5.09177 8.31711 5.4455 8.33286 5.79962C8.36092 6.42814 7.94467 6.9911 7.33536 7.1478C6.74903 7.29856 6.20411 7.58028 5.74299 7.97256C5.282 8.36478 4.91682 8.8572 4.67406 9.41166C4.43128 9.96625 4.31699 10.5693 4.34155 11.1742C4.36617 11.7789 4.52877 12.37 4.81563 12.9029C5.11822 13.465 4.97849 14.1628 4.48313 14.5654C3.97862 14.9753 3.58162 15.5025 3.32718 16.1006C3.07272 16.6989 2.96858 17.3504 3.02325 17.9982C3.07792 18.646 3.29039 19.2708 3.6415 19.8179C3.99258 20.3648 4.47174 20.818 5.03773 21.1375C5.50924 21.4036 5.77214 21.9292 5.70273 22.4662C5.63285 23.0071 5.67536 23.5565 5.82611 24.0806C5.97688 24.6047 6.23292 25.0922 6.57944 25.5132C6.92605 25.9343 7.35523 26.2802 7.8406 26.5289C8.32599 26.7776 8.85756 26.9235 9.40179 26.9588C9.94582 26.9941 10.4913 26.9178 11.0045 26.7341C11.518 26.5503 11.9884 26.2626 12.3865 25.8898C12.7846 25.5172 13.1031 25.0666 13.3203 24.5664C13.5372 24.0667 13.6495 23.5278 13.6503 22.9831L13.6503 5.68922L13.6372 5.42426C13.6117 5.16074 13.5475 4.90189 13.4451 4.65666C13.3083 4.32944 13.1071 4.03234 12.8541 3.78385C12.601 3.53532 12.3005 3.33928 11.9709 3.20846C11.6414 3.07779 11.2888 3.01404 10.9344 3.02143Z" fill="#99CFF9"/>
</svg>
