<svg width="20" height="19" viewBox="0 0 20 19" fill="none" xmlns="http://www.w3.org/2000/svg">
<path d="M16.6499 9.67011C16.6499 7.90642 15.9488 6.21547 14.7018 4.96834C13.5326 3.79921 11.9734 3.10947 10.3298 3.0279L9.99994 3.02011C8.23623 3.02011 6.54531 3.72123 5.29818 4.96834C4.05106 6.21547 3.34994 7.90642 3.34994 9.67011L3.36033 10.0779C3.41497 11.0484 3.7116 12.1411 4.95529 13.3848C5.89812 14.3276 6.8463 15.5214 7.24253 17.0734L7.31397 17.389L7.33345 17.5242C7.39806 18.195 6.94609 18.819 6.27101 18.9542C5.59561 19.0892 4.93786 18.6868 4.73969 18.0423L4.70592 17.9112L4.6163 17.5591C4.40099 16.8647 3.97226 16.2263 3.38241 15.5862L3.07459 15.2654C1.29211 13.483 0.803749 11.7532 0.709426 10.2832L0.689941 9.67011C0.689941 7.20094 1.67022 4.83231 3.41618 3.08634C5.16215 1.34038 7.5308 0.360107 9.99994 0.360107L10.4611 0.371798C12.7624 0.485819 14.9467 1.44938 16.5837 3.08634C18.3297 4.83231 19.3099 7.20094 19.3099 9.67011C19.3099 11.7062 18.5331 13.787 16.9241 15.2642L16.9253 15.2654C15.9492 16.2415 15.4867 16.9471 15.294 17.9112C15.1498 18.6312 14.4491 19.0982 13.7289 18.9542C13.0088 18.81 12.5418 18.1092 12.6859 17.389C13.0252 15.6933 13.8927 14.5366 15.0446 13.3848L15.0953 13.3367C16.111 12.4225 16.6499 11.0703 16.6499 9.67011Z" fill="#99CFF9"/>
</svg>
