<svg width="22" height="15" viewBox="0 0 22 15" fill="none" xmlns="http://www.w3.org/2000/svg">
<path d="M0.359985 4.00489L0.359985 1.34489C0.359985 0.61036 0.955453 0.0148926 1.68999 0.0148926C2.42452 0.0148926 3.01999 0.61036 3.01999 1.34489L3.01999 4.00489L3.03037 4.4011C3.12833 6.37322 3.95498 8.24414 5.35787 9.64702C6.85442 11.1435 8.88356 11.9849 11 11.9849L11.3962 11.9745C13.3683 11.8765 15.2392 11.0499 16.6421 9.64702C18.045 8.24414 18.8716 6.37322 18.9696 4.4011L18.98 4.00489V1.34489C18.98 0.61036 19.5754 0.0148926 20.31 0.0148926C21.0445 0.0148926 21.64 0.61036 21.64 1.34489V4.00489L21.627 4.53224C21.4966 7.16218 20.3948 9.65832 18.5241 11.529C16.6534 13.3997 14.1573 14.5015 11.5273 14.6319L11 14.6449C8.17808 14.6449 5.47126 13.5244 3.47587 11.529C1.60513 9.65832 0.503373 7.16218 0.372979 4.53224L0.359985 4.00489Z" fill="#99CFF9"/>
</svg>
