<svg width="12" height="21" viewBox="0 0 12 21" fill="none" xmlns="http://www.w3.org/2000/svg">
<path d="M8.65993 5.67498C8.65993 4.96951 8.37943 4.29312 7.88068 3.79428C7.44405 3.35766 6.87148 3.08833 6.26234 3.02797L5.99993 3.01498C5.2945 3.01498 4.61806 3.29542 4.11918 3.79428C3.62043 4.29312 3.33993 4.96951 3.33993 5.67498L3.33993 14.985C3.33993 15.6904 3.62043 16.3668 4.11918 16.8657C4.61806 17.3645 5.2945 17.645 5.99993 17.645C6.70536 17.645 7.3818 17.3645 7.88068 16.8657C8.37943 16.3668 8.65993 15.6904 8.65993 14.985L8.65993 5.67498ZM11.3199 14.985C11.3199 16.396 10.7591 17.7487 9.7613 18.7464C8.76367 19.7441 7.41093 20.305 5.99993 20.305C4.58893 20.305 3.23622 19.7441 2.23853 18.7464C1.24083 17.7487 0.679932 16.396 0.679932 14.985L0.679932 5.67498C0.679932 4.26402 1.24083 2.91127 2.23853 1.91358C3.23622 0.915881 4.58893 0.35498 5.99993 0.35498L6.26354 0.361471C7.57851 0.426667 8.82592 0.978205 9.7613 1.91358C10.7591 2.91127 11.3199 4.26402 11.3199 5.67498L11.3199 14.985Z" fill="#99CFF9"/>
</svg>
