<svg width="17" height="18" viewBox="0 0 17 18" fill="none" xmlns="http://www.w3.org/2000/svg">
<path d="M0 14.054L0 3.05402C0 2.25837 0.3163 1.49554 0.87891 0.932926C1.44152 0.370316 2.20435 0.0540161 3 0.0540161L9 0.0540161C9.5523 0.0540161 10 0.501736 10 1.05402C10 1.6063 9.5523 2.05402 9 2.05402L3 2.05402C2.73478 2.05402 2.48051 2.15945 2.29297 2.34699C2.10543 2.53453 2 2.7888 2 3.05402L2 14.054C2 14.3192 2.10543 14.5735 2.29297 14.761C2.48051 14.9486 2.73478 15.054 3 15.054L14 15.054C14.2652 15.054 14.5195 14.9486 14.707 14.761C14.8946 14.5735 15 14.3192 15 14.054L15 8.05402C15 7.50172 15.4477 7.05402 16 7.05402C16.5523 7.05402 17 7.50172 17 8.05402V14.054C17 14.8497 16.6837 15.6125 16.1211 16.1751C15.5585 16.7377 14.7957 17.054 14 17.054L3 17.054C2.20435 17.054 1.44152 16.7377 0.87891 16.1751C0.3163 15.6125 0 14.8496 0 14.054Z" fill="#1F4DF4"/>
</svg>
